<?xml version="1.0" encoding="UTF-8"?>
<svg version="1.1" xmlns="http://www.w3.org/2000/svg" width="426" height="167">
<path d="M0 0 C14.52389245 11.58274741 25.34084752 25.14379218 31 43 C31.66 41.68 32.32 40.36 33 39 C36.89558088 38.88356696 40.79071258 38.81267091 44.6875 38.75 C45.79029297 38.71648438 46.89308594 38.68296875 48.02929688 38.6484375 C56.23543471 38.54926967 56.23543471 38.54926967 60.20703125 40.890625 C63.44610771 44.70130319 63.28095684 47.66409558 63.2109375 52.5234375 C62.93112413 55.80865378 62.22285451 57.55486004 60 60 C56.8125 61.8125 56.8125 61.8125 54 63 C55.01231594 65.53990981 56.03135256 68.07632174 57.0703125 70.60546875 C57.41835937 71.45753906 57.76640625 72.30960937 58.125 73.1875 C58.65480469 74.47720703 58.65480469 74.47720703 59.1953125 75.79296875 C60 78 60 78 60 80 C56.7 80 53.4 80 50 80 C49.68546875 79.09636719 49.3709375 78.19273438 49.046875 77.26171875 C48.61890625 76.08222656 48.1909375 74.90273437 47.75 73.6875 C47.33234375 72.51574219 46.9146875 71.34398438 46.484375 70.13671875 C44.96084108 66.91725102 44.07333494 65.69264499 41 64 C38.85266073 63.29485154 38.85266073 63.29485154 37 63 C36.87882813 63.845625 36.75765625 64.69125 36.6328125 65.5625 C36.38144531 67.2640625 36.38144531 67.2640625 36.125 69 C35.96257812 70.11375 35.80015625 71.2275 35.6328125 72.375 C34.94955888 76.28894667 33.96362716 80.14549137 33 84 C118.8 84 204.6 84 293 84 C293 85.98 293 87.96 293 90 C206.87 90.33 120.74 90.66 32 91 C29.525 100.9 29.525 100.9 27 111 C30.3 111 33.6 111 37 111 C36.67 112.32 36.34 113.64 36 115 C30.72 115 25.44 115 20 115 C19.34 116.65 18.68 118.3 18 120 C5.22585544 137.39271399 -14.02782043 147.16353187 -34.7265625 151.58203125 C-58.81896614 154.65826895 -81.4718871 149.74307861 -101 135 C-118.70470057 120.73195483 -129.24351661 101.2229875 -132.75 78.875 C-134.28058566 55.15092231 -129.07437624 32.57385192 -113.43554688 14.15771484 C-105.90710957 5.75095985 -98.02750157 -0.74323578 -88 -6 C-87.13375 -6.47824219 -86.2675 -6.95648438 -85.375 -7.44921875 C-58.58031447 -21.0507893 -24.2484549 -16.90717956 0 0 Z M40 47 C39.67 49.97 39.34 52.94 39 56 C46.18694703 56.64030415 46.18694703 56.64030415 52.75 54.3125 C54.4900341 51.68200483 54.4900341 51.68200483 53 47 C48.71 47 44.42 47 40 47 Z " fill="#4480AE" transform="translate(133,15)"/>
<path d="M0 0 C14.52389245 11.58274741 25.34084752 25.14379218 31 43 C31.66 41.68 32.32 40.36 33 39 C36.89558088 38.88356696 40.79071258 38.81267091 44.6875 38.75 C45.79029297 38.71648438 46.89308594 38.68296875 48.02929688 38.6484375 C56.23543471 38.54926967 56.23543471 38.54926967 60.20703125 40.890625 C63.44610771 44.70130319 63.28095684 47.66409558 63.2109375 52.5234375 C62.93112413 55.80865378 62.22285451 57.55486004 60 60 C56.8125 61.8125 56.8125 61.8125 54 63 C55.01231594 65.53990981 56.03135256 68.07632174 57.0703125 70.60546875 C57.41835937 71.45753906 57.76640625 72.30960937 58.125 73.1875 C58.65480469 74.47720703 58.65480469 74.47720703 59.1953125 75.79296875 C60 78 60 78 60 80 C56.7 80 53.4 80 50 80 C49.68546875 79.09636719 49.3709375 78.19273438 49.046875 77.26171875 C48.61890625 76.08222656 48.1909375 74.90273437 47.75 73.6875 C47.33234375 72.51574219 46.9146875 71.34398438 46.484375 70.13671875 C44.96084108 66.91725102 44.07333494 65.69264499 41 64 C38.85266073 63.29485154 38.85266073 63.29485154 37 63 C36.87882813 63.845625 36.75765625 64.69125 36.6328125 65.5625 C36.38144531 67.2640625 36.38144531 67.2640625 36.125 69 C35.96257812 70.11375 35.80015625 71.2275 35.6328125 72.375 C34.94955888 76.28894667 33.96362716 80.14549137 33 84 C118.8 84 204.6 84 293 84 C293 85.98 293 87.96 293 90 C206.87 90.33 120.74 90.66 32 91 C29.525 100.9 29.525 100.9 27 111 C30.3 111 33.6 111 37 111 C36.67 112.32 36.34 113.64 36 115 C30.72 115 25.44 115 20 115 C19.34 116.65 18.68 118.3 18 120 C5.22585544 137.39271399 -14.02782043 147.16353187 -34.7265625 151.58203125 C-58.81896614 154.65826895 -81.4718871 149.74307861 -101 135 C-118.70470057 120.73195483 -129.24351661 101.2229875 -132.75 78.875 C-134.28058566 55.15092231 -129.07437624 32.57385192 -113.43554688 14.15771484 C-105.90710957 5.75095985 -98.02750157 -0.74323578 -88 -6 C-87.13375 -6.47824219 -86.2675 -6.95648438 -85.375 -7.44921875 C-58.58031447 -21.0507893 -24.2484549 -16.90717956 0 0 Z M-102.625 25 C-115.47792868 41.43078294 -119.65890607 59.42017469 -118 80 C-115.50545539 99.60712062 -104.24732085 115.87674794 -89 128 C-72.55043843 139.94357606 -52.78307777 142.13157753 -33.06640625 139.46875 C-30.28256406 138.80265512 -27.67289299 138.01928652 -25 137 C-24.22269531 136.70996094 -23.44539063 136.41992188 -22.64453125 136.12109375 C-4.29799014 128.57406565 9.76237772 114.99765493 17.5234375 96.78515625 C24.6594606 79.01690754 23.71031365 58.85590437 16.55078125 41.2421875 C13.92710641 35.75692272 10.60994636 30.87811115 7 26 C6.29423828 25.01580078 6.29423828 25.01580078 5.57421875 24.01171875 C-3.3537027 12.55553636 -19.65680817 3.16191862 -34 1 C-38.75289441 0.67253101 -43.48707329 0.62986509 -48.25 0.625 C-49.49652344 0.60050781 -50.74304688 0.57601563 -52.02734375 0.55078125 C-71.75475315 0.48893984 -89.71745848 10.28628373 -102.625 25 Z M40 47 C39.67 49.97 39.34 52.94 39 56 C46.18694703 56.64030415 46.18694703 56.64030415 52.75 54.3125 C54.4900341 51.68200483 54.4900341 51.68200483 53 47 C48.71 47 44.42 47 40 47 Z " fill="#F5AE19" transform="translate(133,15)"/>
<path d="M0 0 C0.79720459 0.00563965 1.59440918 0.0112793 2.41577148 0.01708984 C14.04502742 0.25755557 22.39660204 4.71549887 30.875 12.625 C38.56022884 20.68468314 41.53902095 29.99465246 41.49072266 40.98632812 C41.1522743 54.61120336 35.94122548 63.82614436 26.375 73.0625 C17.70541748 80.64675017 7.97307389 82.7674012 -3.328125 82.65234375 C-15.03735376 81.53042425 -24.58375167 75.30968638 -32.25 66.6875 C-39.93494786 57.07602251 -41.9545778 46.49196224 -40.875 34.3125 C-39.00662606 22.84977341 -32.1828042 13.05835413 -22.875 6.3125 C-15.69723788 1.40383687 -8.53036375 -0.06294144 0 0 Z " fill="#F3AD1A" transform="translate(82.875,44.6875)"/>
<path d="M0 0 C0 3.50691249 -1.2123696 5.58152698 -2.79541016 8.64746094 C-9.04893865 20.84438141 -10.9449464 32.52619757 -7 46 C-5.50415179 48.28465562 -4.22558928 49.34507464 -2 51 C-1.67 51.66 -1.34 52.32 -1 53 C-0.01 53.33 0.98 53.66 2 54 C2.061875 55.918125 2.061875 55.918125 2.125 57.875 C2.89446572 64.84416093 6.53533107 70.59694779 11.5 75.4375 C13.98319472 77.98277458 15.15259446 80.04535063 16.75 83.1875 C20.40276803 90.17128965 25.48448771 97.85436703 33 101 C33 100.01 33 99.02 33 98 C32.1028125 97.814375 32.1028125 97.814375 31.1875 97.625 C29 97 29 97 26 95 C24.98249716 89.634985 24.90271477 84.44797276 25 79 C25.99 78.67 26.98 78.34 28 78 C28 76.35 28 74.7 28 73 C28.94101562 73.48210937 29.88203125 73.96421875 30.8515625 74.4609375 C32.10926522 75.0991747 33.36708392 75.7371834 34.625 76.375 C35.55119141 76.85066406 35.55119141 76.85066406 36.49609375 77.3359375 C46.26821675 82.27343123 55.71003708 83.771037 66.4375 80.6875 C76.45686445 77.39417847 85.68486005 70.73003289 90.9765625 61.44140625 C93.96201671 54.31961662 95.55450878 46.5599191 97 39 C99.25 38.6875 99.25 38.6875 102 39 C106.11562169 42.76285412 106.92797401 46.72920556 108 52 C108.268125 51.113125 108.53625 50.22625 108.8125 49.3125 C109.9250635 46.2090334 111.10195778 43.68889315 113 41 C113.66 41 114.32 41 115 41 C116.98 45.455 116.98 45.455 119 50 C119.97608217 47.07175348 120.08226668 45.04386724 120 42 C120.66 41.67 121.32 41.34 122 41 C122.39804845 31.79307538 122.39804845 31.79307538 120 23 C120.66 23 121.32 23 122 23 C121.80664062 22.35933594 121.61328125 21.71867187 121.4140625 21.05859375 C119.9059252 16.04889015 118.42282214 11.03460143 117 6 C124.2992861 12.15012735 126.21346156 24.94942065 127 34 C128.25335159 53.59084947 124.05311794 71.70331052 111.0703125 86.90698242 C99.44040175 99.77914176 83.18454322 110.1434964 65.48095703 111.14208984 C42.01159872 111.93148093 42.01159872 111.93148093 31 107 C29.47052734 106.34644531 29.47052734 106.34644531 27.91015625 105.6796875 C10.50008898 97.64427184 -2.22254408 83.32675484 -9.3515625 65.6484375 C-15.73093434 47.15284863 -14.72111548 27.74963534 -6.31274414 10.15209961 C-2.57933544 2.57933544 -2.57933544 2.57933544 0 0 Z " fill="#304F80" transform="translate(28,44)"/>
<path d="M0 0 C4 1 4 1 5.9375 1.6875 C8.12180248 2.22124677 8.12180248 2.22124677 10.34765625 0.82421875 C13 0 13 0 15.28125 1.1953125 C16.0134375 1.83210938 16.745625 2.46890625 17.5 3.125 C18.2321875 3.74632812 18.964375 4.36765625 19.71875 5.0078125 C20.4715625 5.66523438 21.224375 6.32265625 22 7 C22.82371094 7.62519531 23.64742187 8.25039063 24.49609375 8.89453125 C33.50162954 16.46704886 39.16274513 26.97136245 40.75 38.5625 C40.88160983 40.3721352 41 42.1855853 41 44 C41.24556641 44.85851562 41.24556641 44.85851562 41.49609375 45.734375 C42.13692512 48.61563232 42.09455243 51.30117645 42.0625 54.25 C42.05347656 55.32765625 42.04445313 56.4053125 42.03515625 57.515625 C42.02355469 58.33546875 42.01195312 59.1553125 42 60 C40.515 60.495 40.515 60.495 39 61 C39.495 64.96 39.495 64.96 40 69 C39.01 69 38.02 69 37 69 C36.01 66.03 35.02 63.06 34 60 C29.84209157 64.15790843 28.48374802 67.38295392 27 73 C26.67 73 26.34 73 26 73 C25.89042969 72.32453125 25.78085938 71.6490625 25.66796875 70.953125 C25.50941406 70.06109375 25.35085937 69.1690625 25.1875 68.25 C25.03667969 67.36828125 24.88585937 66.4865625 24.73046875 65.578125 C23.93238788 62.76136898 22.98364984 61.13923022 21 59 C18.40144267 58.1957792 18.40144267 58.1957792 16 58 C16 59.65 16 61.3 16 63 C15.67 63 15.34 63 15 63 C14.98582031 62.27296875 14.97164062 61.5459375 14.95703125 60.796875 C14.39238251 48.89346906 10.79047379 39.81185473 2.46484375 31.1953125 C-7.00821424 22.75813565 -16.64850801 20.77070065 -29 20 C-29 19.67 -29 19.34 -29 19 C-26.36 19 -23.72 19 -21 19 C-20.87625 18.21625 -20.7525 17.4325 -20.625 16.625 C-20 14 -20 14 -18 12 C-14.58178641 12.25320101 -11.85689444 12.49594445 -8.875 14.25 C-8.25625 14.4975 -7.6375 14.745 -7 15 C-4.33942344 13.7536564 -4.33942344 13.7536564 -2 12 C-1.34 11.67 -0.68 11.34 0 11 C-0.33 9.68 -0.66 8.36 -1 7 C-0.34 7 0.32 7 1 7 C0.67 4.69 0.34 2.38 0 0 Z " fill="#8CC576" transform="translate(109,25)"/>
<path d="M0 0 C0.33 0.66 0.66 1.32 1 2 C0.67 2.33 0.34 2.66 0 3 C1.32 2.67 2.64 2.34 4 2 C4 2.66 4 3.32 4 4 C5.32 4.33 6.64 4.66 8 5 C7.34 8.63 6.68 12.26 6 16 C5.01 16.33 4.02 16.66 3 17 C2.67 17.66 2.34 18.32 2 19 C1.34 19 0.68 19 0 19 C0 17.35 0 15.7 0 14 C-0.66 14 -1.32 14 -2 14 C-2.33 14.99 -2.66 15.98 -3 17 C-3.598125 17.12375 -4.19625 17.2475 -4.8125 17.375 C-8.13045559 18.32298731 -9.23201492 20.11883912 -11 23 C-10.66020054 25.63285285 -10.66020054 25.63285285 -10 28 C-9.59007813 27.3503125 -9.18015625 26.700625 -8.7578125 26.03125 C-8.21898438 25.1959375 -7.68015625 24.360625 -7.125 23.5 C-6.59132813 22.6646875 -6.05765625 21.829375 -5.5078125 20.96875 C-5.01023437 20.3190625 -4.51265625 19.669375 -4 19 C-3.34 19 -2.68 19 -2 19 C-2 20.32 -2 21.64 -2 23 C-1.34 23 -0.68 23 0 23 C0 27.62 0 32.24 0 37 C-1.32 36.34 -2.64 35.68 -4 35 C-3.67 34.34 -3.34 33.68 -3 33 C-5.26716429 33.85006086 -5.26716429 33.85006086 -5.9375 36.5 C-6.288125 37.325 -6.63875 38.15 -7 39 C-8.485 39.495 -8.485 39.495 -10 40 C-14.41684658 45.13495304 -17.69625723 50.33642584 -19 57 C-19.33 55.68 -19.66 54.36 -20 53 C-21.65 53.66 -23.3 54.32 -25 55 C-25.33 57.97 -25.66 60.94 -26 64 C-25.34 64 -24.68 64 -24 64 C-24 63.01 -24 62.02 -24 61 C-23.34 61 -22.68 61 -22 61 C-22.495 63.475 -22.495 63.475 -23 66 C-22.34 66 -21.68 66 -21 66 C-20.67 67.65 -20.34 69.3 -20 71 C-19.01 71.33 -18.02 71.66 -17 72 C-16.67 71.01 -16.34 70.02 -16 69 C-9.25 70.625 -9.25 70.625 -7 74 C-5.68 74 -4.36 74 -3 74 C-2.62875 74.99 -2.2575 75.98 -1.875 77 C0.39123465 82.32402495 3.9223045 86.9223045 8 91 C8.125 94.125 8.125 94.125 8 97 C7.01 97.495 7.01 97.495 6 98 C6 103.28 6 108.56 6 114 C9.76429774 116 9.76429774 116 13 117 C13 117.99 13 118.98 13 120 C4.79918044 117.76341285 0.32810653 110.38567381 -3.6640625 103.42578125 C-4.47808095 101.94769512 -5.28679226 100.46664893 -6.0859375 98.98046875 C-7.66442318 96.08236905 -9.15475971 93.84524029 -11.5 91.5 C-15.99816296 87.00183704 -18.24006723 83.38967177 -18.25 77.0625 C-18.18664949 75.70725149 -18.11038614 74.35223027 -18 73 C-18.62390625 72.87496094 -19.2478125 72.74992187 -19.890625 72.62109375 C-22.710681 71.79074393 -23.50337439 70.46943225 -25 68 C-25 67.34 -25 66.68 -25 66 C-25.99 65.67 -26.98 65.34 -28 65 C-30.92293083 48.6702377 -29.50576076 38.40443962 -21.9675293 23.87817383 C-21.09914246 22.19245596 -20.27873575 20.48222511 -19.46484375 18.76953125 C-15.05569228 10.43329555 -7.80737827 4.97560377 0 0 Z " fill="#61A65E" transform="translate(48,25)"/>
<path d="M0 0 C6.76211516 0.93270554 10.93507809 5.55943207 15.6953125 10.109375 C17.76943061 11.88976719 17.76943061 11.88976719 21.625 11.5 C24.10328425 8.28740931 24.91777266 5.43271277 25.625 1.5 C27.58418968 1.55991406 29.54251529 1.64867138 31.5 1.75 C32.59054688 1.79640625 33.68109375 1.8428125 34.8046875 1.890625 C37.625 2.5 37.625 2.5 39.0078125 4.546875 C39.21148437 5.19140625 39.41515625 5.8359375 39.625 6.5 C39.01011719 6.70753906 38.39523438 6.91507812 37.76171875 7.12890625 C32.95415908 8.81261629 32.95415908 8.81261629 29.46484375 12.2890625 C28.81571911 14.01296729 28.21737635 15.75578075 27.625 17.5 C26.635 17.83 25.645 18.16 24.625 18.5 C24.13 19.985 24.13 19.985 23.625 21.5 C20.0625 22.6875 20.0625 22.6875 16.625 23.5 C17.53141978 29.19887331 18.4504929 34.89967394 19.5625 40.5625 C19.76166016 41.60083984 19.76166016 41.60083984 19.96484375 42.66015625 C20.75692602 44.86767549 21.95413399 45.89287275 23.625 47.5 C23.625 48.16 23.625 48.82 23.625 49.5 C21.645 49.5 19.665 49.5 17.625 49.5 C17.51542969 48.93152344 17.40585938 48.36304688 17.29296875 47.77734375 C16.4994499 43.91297146 15.63240541 40.51718055 14.0625 36.875 C12.56658693 33.36285628 12.01093522 30.28216518 11.625 26.5 C10.965 26.5 10.305 26.5 9.625 26.5 C9.49222656 27.27085938 9.35945313 28.04171875 9.22265625 28.8359375 C8.95775391 30.34027344 8.95775391 30.34027344 8.6875 31.875 C8.42646484 33.37160156 8.42646484 33.37160156 8.16015625 34.8984375 C7.625 37.5 7.625 37.5 6.625 39.5 C6.55503986 41.20702735 6.54059846 42.91668003 6.5625 44.625 C6.57152344 45.53507812 6.58054687 46.44515625 6.58984375 47.3828125 C6.60144531 48.08148438 6.61304687 48.78015625 6.625 49.5 C5.305 49.5 3.985 49.5 2.625 49.5 C1.4251 44.82038999 1.92891166 41.57370112 3.078125 37.0234375 C4.04327457 32.56996164 4.30265208 28.03831944 4.625 23.5 C3.965 23.83 3.305 24.16 2.625 24.5 C0.75120395 24.57033769 -1.12501102 24.5843022 -3 24.5625 C-4.00289062 24.55347656 -5.00578125 24.54445313 -6.0390625 24.53515625 C-6.80992188 24.52355469 -7.58078125 24.51195313 -8.375 24.5 C-12.16487473 33.15147634 -11.73464924 41.50993141 -9.375 50.5 C-11.97219377 49.50931784 -13.13757032 48.98310981 -14.38671875 46.44140625 C-14.60972656 45.65636719 -14.83273438 44.87132812 -15.0625 44.0625 C-15.29324219 43.28003906 -15.52398437 42.49757812 -15.76171875 41.69140625 C-15.96410156 40.96824219 -16.16648437 40.24507812 -16.375 39.5 C-16.87 38.015 -16.87 38.015 -17.375 36.5 C-18.035 40.46 -18.695 44.42 -19.375 48.5 C-20.365 48.5 -21.355 48.5 -22.375 48.5 C-22.28793747 45.58190419 -22.18105266 42.66684289 -22.0625 39.75 C-22.03994141 38.925 -22.01738281 38.1 -21.99414062 37.25 C-21.78226846 32.47324578 -21.30302994 30.32226611 -18.375 26.5 C-18.23775913 22.9271368 -18.23775913 22.9271368 -18.5625 19.0625 C-18.81749496 12.27963398 -18.81749496 12.27963398 -17.2265625 9.4765625 C-14.33081719 7.05119206 -10.84797754 5.87091219 -7.375 4.5 C-6.75625 3.79875 -6.1375 3.0975 -5.5 2.375 C-3.375 0.5 -3.375 0.5 0 0 Z " fill="#292321" transform="translate(76.375,61.5)"/>
<path d="M0 0 C1.24265625 -0.02449219 2.4853125 -0.04898437 3.765625 -0.07421875 C16.0523546 -0.11269494 26.47989703 2.82098159 36.875 9.375 C33.125 12.3984375 33.125 12.3984375 30.875 12.1875 C28.81151179 11.34920791 26.83821426 10.42672193 24.875 9.375 C25.37 12.84 25.37 12.84 25.875 16.375 C25.215 16.375 24.555 16.375 23.875 16.375 C24.1225 16.9525 24.37 17.53 24.625 18.125 C24.7075 18.8675 24.79 19.61 24.875 20.375 C22.75851863 22.9450131 20.65345583 24.52269611 17.875 26.375 C17.38 25.385 17.38 25.385 16.875 24.375 C13.46021428 22.66760714 10.6866205 21.96293292 6.875 22.375 C4.50341973 24.4035831 4.50341973 24.4035831 3.875 28.375 C-2.065 29.365 -8.005 30.355 -14.125 31.375 C-14.785 28.735 -15.445 26.095 -16.125 23.375 C-15.135 23.375 -14.145 23.375 -13.125 23.375 C-13.125 22.715 -13.125 22.055 -13.125 21.375 C-12.465 21.375 -11.805 21.375 -11.125 21.375 C-10.795 20.055 -10.465 18.735 -10.125 17.375 C-9.465 17.375 -8.805 17.375 -8.125 17.375 C-8.00125 16.4675 -7.8775 15.56 -7.75 14.625 C-7.19920556 11.76086893 -6.47843649 9.90141478 -5.125 7.375 C-5.125 6.715 -5.125 6.055 -5.125 5.375 C-6.1975 5.560625 -7.27 5.74625 -8.375 5.9375 C-11.62458609 6.31661838 -13.12968544 6.26250061 -16.125 5.375 C-17.115 5.87 -17.115 5.87 -18.125 6.375 C-20.12460012 6.414992 -22.12547242 6.41846799 -24.125 6.375 C-22.53304064 3.56565996 -21.40662634 2.48909684 -18.38671875 1.265625 C-12.39773121 -0.29752626 -6.14350967 0.00625612 0 0 Z " fill="#4B93C1" transform="translate(84.125,15.625)"/>
<path d="M0 0 C1.09828125 -0.02900391 2.1965625 -0.05800781 3.328125 -0.08789062 C11.46453557 -0.15207348 11.46453557 -0.15207348 15.453125 2.20703125 C18.70023108 6.0117925 18.53094585 8.97735816 18.4609375 13.8359375 C18.18112413 17.12115378 17.47285451 18.86736004 15.25 21.3125 C12.0625 23.125 12.0625 23.125 9.25 24.3125 C10.26231594 26.85240981 11.28135256 29.38882174 12.3203125 31.91796875 C12.66835937 32.77003906 13.01640625 33.62210938 13.375 34.5 C13.72820312 35.35980469 14.08140625 36.21960938 14.4453125 37.10546875 C15.25 39.3125 15.25 39.3125 15.25 41.3125 C11.95 41.3125 8.65 41.3125 5.25 41.3125 C4.93546875 40.40886719 4.6209375 39.50523438 4.296875 38.57421875 C3.86890625 37.39472656 3.4409375 36.21523437 3 35 C2.58234375 33.82824219 2.1646875 32.65648437 1.734375 31.44921875 C0.21084108 28.22975102 -0.67666506 27.00514499 -3.75 25.3125 C-5.89733927 24.60735154 -5.89733927 24.60735154 -7.75 24.3125 C-7.88277344 25.20453125 -8.01554688 26.0965625 -8.15234375 27.015625 C-8.32894531 28.18609375 -8.50554687 29.3565625 -8.6875 30.5625 C-8.86152344 31.72265625 -9.03554687 32.8828125 -9.21484375 34.078125 C-9.75 37.3125 -9.75 37.3125 -10.75 41.3125 C-13.72 41.3125 -16.69 41.3125 -19.75 41.3125 C-19.06054027 33.59055099 -17.65241406 26.04314772 -16.16601562 18.44384766 C-15.74569266 16.29043246 -15.33348416 14.1355646 -14.921875 11.98046875 C-14.6567301 10.61188607 -14.39112243 9.24339294 -14.125 7.875 C-13.76535156 6.02068359 -13.76535156 6.02068359 -13.3984375 4.12890625 C-11.97917884 -2.03546421 -5.35712115 0.04650279 0 0 Z M-4.75 8.3125 C-5.08 11.2825 -5.41 14.2525 -5.75 17.3125 C1.43694703 17.95280415 1.43694703 17.95280415 8 15.625 C9.7400341 12.99450483 9.7400341 12.99450483 8.25 8.3125 C3.96 8.3125 -0.33 8.3125 -4.75 8.3125 Z " fill="#174B96" transform="translate(177.75,53.6875)"/>
<path d="M0 0 C2.97 0 5.94 0 9 0 C8.85737588 1.5627962 8.71074489 3.12522696 8.5625 4.6875 C8.48128906 5.55761719 8.40007812 6.42773438 8.31640625 7.32421875 C8.01156391 9.90220641 7.50910741 12.45446295 7 15 C11.29 15 15.58 15 20 15 C20.99 10.05 21.98 5.1 23 0 C25.97 0 28.94 0 32 0 C31.33089078 7.56929803 29.92692561 14.94739116 28.41601562 22.38647461 C27.99614248 24.45651819 27.58362401 26.52793616 27.171875 28.59960938 C25.13706589 38.72586823 25.13706589 38.72586823 24 41 C21.03 41 18.06 41 15 41 C15.3110685 38.93728361 15.62391516 36.87483534 15.9375 34.8125 C16.11152344 33.66394531 16.28554688 32.51539063 16.46484375 31.33203125 C16.91268074 28.54367395 17.44615003 25.76924983 18 23 C13.71 23 9.42 23 5 23 C4.79503906 24.21558594 4.59007812 25.43117188 4.37890625 26.68359375 C4.10698039 28.26826514 3.83483357 29.85289863 3.5625 31.4375 C3.42779297 32.23994141 3.29308594 33.04238281 3.15429688 33.86914062 C2.11328125 39.88671875 2.11328125 39.88671875 1 41 C-0.51928038 41.07179964 -2.04167482 41.08392007 -3.5625 41.0625 C-4.38878906 41.05347656 -5.21507812 41.04445312 -6.06640625 41.03515625 C-6.70449219 41.02355469 -7.34257812 41.01195312 -8 41 C-2.64974842 11.65458453 -2.64974842 11.65458453 0 0 Z " fill="#144A98" transform="translate(284,54)"/>
<path d="M0 0 C9.9 0 19.8 0 30 0 C29.67 2.64 29.34 5.28 29 8 C22.07 8 15.14 8 8 8 C7.67 10.31 7.34 12.62 7 15 C13.27 15.33 19.54 15.66 26 16 C25.67 18.31 25.34 20.62 25 23 C18.4 23 11.8 23 5 23 C4.34 26.3 3.68 29.6 3 33 C10.26 33 17.52 33 25 33 C24 40 24 40 23 41 C20.70848583 41.08790975 18.41427476 41.10694038 16.12109375 41.09765625 C15.09110008 41.09553383 15.09110008 41.09553383 14.04029846 41.09336853 C11.83932199 41.08775479 9.63844591 41.07520007 7.4375 41.0625 C5.94856917 41.05748676 4.45963676 41.05292355 2.97070312 41.04882812 C-0.68623075 41.03778093 -4.34310558 41.02050713 -8 41 C-7.23262114 36.79102942 -6.46043463 32.58295357 -5.6875 28.375 C-5.47416016 27.20453125 -5.26082031 26.0340625 -5.04101562 24.828125 C-4.82509766 23.65507813 -4.60917969 22.48203125 -4.38671875 21.2734375 C-4.09607544 19.68668213 -4.09607544 19.68668213 -3.79956055 18.06787109 C-2.61260246 12.02906326 -1.28951612 6.01774191 0 0 Z " fill="#144A98" transform="translate(365,54)"/>
<path d="M0 0 C1.37478516 0.01740234 1.37478516 0.01740234 2.77734375 0.03515625 C3.69644531 0.04417969 4.61554688 0.05320313 5.5625 0.0625 C6.27277344 0.07410156 6.98304688 0.08570313 7.71484375 0.09765625 C8.57457341 5.13218128 9.42890916 10.16758119 10.27832031 15.20385742 C10.56786429 16.91602101 10.8588651 18.6279389 11.15136719 20.33959961 C11.5722216 22.80388829 11.98778095 25.26902109 12.40234375 27.734375 C12.53358643 28.49602463 12.6648291 29.25767426 12.80004883 30.04240417 C13.42079727 33.76494329 13.87151456 37.32123685 13.71484375 41.09765625 C10.74484375 41.09765625 7.77484375 41.09765625 4.71484375 41.09765625 C4.38484375 38.12765625 4.05484375 35.15765625 3.71484375 32.09765625 C-1.06000134 31.99552053 -5.61135933 32.05603638 -10.28515625 33.09765625 C-12.84519113 35.69614659 -13.25851732 37.50442001 -14.28515625 41.09765625 C-17.58515625 41.09765625 -20.88515625 41.09765625 -24.28515625 41.09765625 C-19.53011309 31.32898753 -14.51998029 21.71475621 -9.34765625 12.16015625 C-8.76798096 11.08765625 -8.18830566 10.01515625 -7.59106445 8.91015625 C-2.81258688 0.12019602 -2.81258688 0.12019602 0 0 Z M-0.28515625 12.09765625 C-1.88293149 14.27516804 -1.88293149 14.27516804 -3.41015625 16.97265625 C-3.94898438 17.87757812 -4.4878125 18.7825 -5.04296875 19.71484375 C-6.43924555 21.94537647 -6.43924555 21.94537647 -6.28515625 24.09765625 C-3.31515625 24.09765625 -0.34515625 24.09765625 2.71484375 24.09765625 C2.38484375 20.13765625 2.05484375 16.17765625 1.71484375 12.09765625 C1.05484375 12.09765625 0.39484375 12.09765625 -0.28515625 12.09765625 Z " fill="#144A98" transform="translate(219.28515625,53.90234375)"/>
<path d="M0 0 C3.63 0 7.26 0 11 0 C11.85640509 5.51728352 12.71085551 11.03486481 13.56347656 16.55273438 C13.8539513 18.4307478 14.14496493 20.30867796 14.43652344 22.18652344 C14.85492579 24.88194542 15.27140452 27.57765857 15.6875 30.2734375 C15.81874268 31.11619232 15.94998535 31.95894714 16.08520508 32.82723999 C17 38.77225659 17 38.77225659 17 41 C14.03 41 11.06 41 8 41 C7.67 38.03 7.34 35.06 7 32 C2.22575819 31.89663347 -2.32507179 31.96766459 -7 33 C-8.85711207 34.98736201 -9.68842434 36.78182885 -10.78125 39.25390625 C-12 41 -12 41 -14.28125 41.52734375 C-16.56966123 41.50262326 -18.7405078 41.35443015 -21 41 C-19.34623537 34.99633325 -16.32266108 29.84089545 -13.3125 24.4375 C-12.23021027 22.47540297 -11.14817819 20.5131638 -10.06640625 18.55078125 C-9.54191895 17.60283691 -9.01743164 16.65489258 -8.47705078 15.67822266 C-6.54403958 12.17324201 -4.64133195 8.65260138 -2.75 5.125 C-2.20859375 4.11695313 -1.6671875 3.10890625 -1.109375 2.0703125 C-0.74328125 1.38710938 -0.3771875 0.70390625 0 0 Z M3 11 C1.99491199 12.78881736 0.99607264 14.58114696 0 16.375 C-0.556875 17.37273437 -1.11375 18.37046875 -1.6875 19.3984375 C-3.15014268 21.81195509 -3.15014268 21.81195509 -3 24 C-0.03 24 2.94 24 6 24 C5.34 19.71 4.68 15.42 4 11 C3.67 11 3.34 11 3 11 Z " fill="#144A98" transform="translate(335,54)"/>
<path d="M0 0 C1.00289063 -0.02900391 2.00578125 -0.05800781 3.0390625 -0.08789062 C10.47992386 -0.15203598 10.47992386 -0.15203598 14.390625 2.20703125 C17.6975575 5.95164599 17.58415173 8.91897857 17.53515625 13.76953125 C17.01816884 18.3799258 14.59167525 21.05738444 11.3125 24.125 C7.11613745 26.54108753 2.67812045 26.42709473 -2.0625 26.375 C-3.66544922 26.36146484 -3.66544922 26.36146484 -5.30078125 26.34765625 C-6.10902344 26.33605469 -6.91726562 26.32445313 -7.75 26.3125 C-7.81058594 26.97636719 -7.87117187 27.64023438 -7.93359375 28.32421875 C-8.76581722 37.09457381 -8.76581722 37.09457381 -9.75 41.3125 C-12.72 41.3125 -15.69 41.3125 -18.75 41.3125 C-18.13193633 33.34720443 -16.75922615 25.61541094 -15.16601562 17.7956543 C-14.74466559 15.72376937 -14.33282258 13.65014251 -13.921875 11.57617188 C-13.65680391 10.25770102 -13.39119923 8.9393373 -13.125 7.62109375 C-12.88523438 6.43314209 -12.64546875 5.24519043 -12.3984375 4.02124023 C-10.99809593 -1.82845469 -5.12841573 0.04868749 0 0 Z M-3.75 7.3125 C-4.41 10.9425 -5.07 14.5725 -5.75 18.3125 C0.5632548 18.78867291 0.5632548 18.78867291 6.3125 16.625 C8.48947269 14.45851494 8.48947269 14.45851494 8.5625 11.5625 C8.459375 10.82 8.35625 10.0775 8.25 9.3125 C4.34971775 6.71231184 0.77565431 7.16164486 -3.75 7.3125 Z " fill="#144A98" transform="translate(257.75,53.6875)"/>
<path d="M0 0 C0.99 0 1.98 0 3 0 C3 2.31 3 4.62 3 7 C3.66 7 4.32 7 5 7 C5 6.01 5 5.02 5 4 C5.66 4 6.32 4 7 4 C6.67 5.65 6.34 7.3 6 9 C6.66 9 7.32 9 8 9 C8.33 10.65 8.66 12.3 9 14 C9.99 14.33 10.98 14.66 12 15 C12.33 14.01 12.66 13.02 13 12 C19.75 13.625 19.75 13.625 22 17 C23.32 17 24.64 17 26 17 C26.37125 17.99 26.7425 18.98 27.125 20 C29.39123465 25.32402495 32.9223045 29.9223045 37 34 C37.125 37.125 37.125 37.125 37 40 C36.01 40.495 36.01 40.495 35 41 C35 46.28 35 51.56 35 57 C38.76429774 59 38.76429774 59 42 60 C42 60.99 42 61.98 42 63 C33.79918044 60.76341285 29.32810653 53.38567381 25.3359375 46.42578125 C24.52191905 44.94769512 23.71320774 43.46664893 22.9140625 41.98046875 C21.33557682 39.08236905 19.84524029 36.84524029 17.5 34.5 C13.00183704 30.00183704 10.75993277 26.38967177 10.75 20.0625 C10.81335051 18.70725149 10.88961386 17.35223027 11 16 C10.37609375 15.87496094 9.7521875 15.74992187 9.109375 15.62109375 C6.289319 14.79074393 5.49662561 13.46943225 4 11 C4 10.34 4 9.68 4 9 C3.01 8.67 2.02 8.34 1 8 C0.67 5.36 0.34 2.72 0 0 Z " fill="#3C9650" transform="translate(19,82)"/>
<path d="M0 0 C2.97 0 5.94 0 9 0 C7.61558367 11.16641066 5.38957319 22.00796332 3 33 C9.27 33 15.54 33 22 33 C21.67 35.64 21.34 38.28 21 41 C11.43 41 1.86 41 -8 41 C-5.75 26.375 -5.75 26.375 -4.4921875 20.60546875 C-4.22792969 19.38408203 -3.96367187 18.16269531 -3.69140625 16.90429688 C-3.42199219 15.67775391 -3.15257812 14.45121094 -2.875 13.1875 C-2.45927734 11.27227539 -2.45927734 11.27227539 -2.03515625 9.31835938 C-1.36025005 6.21146359 -0.68181845 3.10538479 0 0 Z " fill="#144A98" transform="translate(403,54)"/>
<path d="M0 0 C0.66 0 1.32 0 2 0 C3.76217951 2.59144046 4.00276035 3.95399417 3.8125 7.125 C3.18365919 10.12408695 2.4187613 12.74663351 1.4375 15.625 C-1.23423294 24.1745454 -0.37100832 33.25982193 1 42 C-0.9375 41.6875 -0.9375 41.6875 -3 41 C-3.33 40.01 -3.66 39.02 -4 38 C-6.31 37.67 -8.62 37.34 -11 37 C-11.33 37.66 -11.66 38.32 -12 39 C-13.32 38.67 -14.64 38.34 -16 38 C-16 36.35 -16 34.7 -16 33 C-16.66 33 -17.32 33 -18 33 C-17.67 31.35 -17.34 29.7 -17 28 C-17.66 28 -18.32 28 -19 28 C-19 28.99 -19 29.98 -19 31 C-19.66 31 -20.32 31 -21 31 C-21.08096803 29.54257537 -21.13917774 28.08387193 -21.1875 26.625 C-21.22230469 25.81289062 -21.25710937 25.00078125 -21.29296875 24.1640625 C-21.19628906 23.44992188 -21.09960938 22.73578125 -21 22 C-18 20 -18 20 -16 19.64453125 C-13.1656192 18.73110775 -12.51474115 17.20246425 -11 14.6875 C-6.2337587 7.11687935 -6.2337587 7.11687935 -2 5 C-1.27840576 3.35636866 -0.60648579 1.68949614 0 0 Z " fill="#38648D" transform="translate(43,58)"/>
<path d="M0 0 C7.2992861 6.15012735 9.21346156 18.94942065 10 28 C11.22259362 47.11007875 6.90011483 62.33517724 -3.546875 78.375 C-5.69745009 80.77994418 -7.88844987 80.72341777 -11 81 C-7.69625865 75.83351087 -4.363369 71.03119089 -0.1015625 66.60546875 C1.37717484 64.77479461 1.37717484 64.77479461 1 61 C0.34 61 -0.32 61 -1 61 C-1.19532961 59.2300132 -1.38098882 57.45895721 -1.5625 55.6875 C-1.71912109 54.20830078 -1.71912109 54.20830078 -1.87890625 52.69921875 C-2.04871343 48.91416192 -0.70121522 46.28901609 1 43 C1.66 43.33 2.32 43.66 3 44 C3 41.36 3 38.72 3 36 C3.99 35.505 3.99 35.505 5 35 C5.39804845 25.79307538 5.39804845 25.79307538 3 17 C3.66 17 4.32 17 5 17 C4.80664062 16.35933594 4.61328125 15.71867187 4.4140625 15.05859375 C2.9059252 10.04889015 1.42282214 5.03460143 0 0 Z " fill="#437197" transform="translate(145,50)"/>
<path d="M0 0 C0.66 0.33 1.32 0.66 2 1 C3.32 1 4.64 1 6 1 C6.6875 2.75 6.6875 2.75 7 5 C5.625 7 5.625 7 4 9 C3.65772583 10.33106622 3.32248257 11.66400079 3 13 C2.01 13.495 2.01 13.495 1 14 C0.67 14.99 0.34 15.98 0 17 C-0.66 17 -1.32 17 -2 17 C-2 17.66 -2 18.32 -2 19 C-2.67546875 19.31453125 -3.3509375 19.6290625 -4.046875 19.953125 C-10.67583569 23.06333886 -10.67583569 23.06333886 -16 28 C-17 27 -17 27 -17.4375 24.5625 C-16.87528855 19.98449249 -14.91862917 17.17437334 -12.41015625 13.3671875 C-11.10693262 11.17950462 -10.45221424 9.48431622 -10 7 C-11.65 7 -13.3 7 -15 7 C-11.8306415 1.59344726 -6.15190741 -0.70307513 0 0 Z " fill="#8AC177" transform="translate(73,20)"/>
<path d="M0 0 C3 1.75 3 1.75 5 4 C5 5.32 5 6.64 5 8 C0.44615385 8.36923077 0.44615385 8.36923077 -1.8125 6.5 C-2.204375 6.005 -2.59625 5.51 -3 5 C-6.72614153 6.11854586 -6.72614153 6.11854586 -9 9 C-9.16669318 12.54171978 -9.16669318 12.54171978 -9 16 C-7.9404123 17.28322547 -7.9404123 17.28322547 -5.5 17.125 C-3.0595877 17.28322547 -3.0595877 17.28322547 -2 16 C-3.32 15.67 -4.64 15.34 -6 15 C-6 13.35 -6 11.7 -6 10 C-2.7 10 0.6 10 4 10 C3.82813994 16.6166125 3.82813994 16.6166125 3 20 C-0.21214805 22.60031032 -2.50312677 22.93026341 -6.5625 23.5 C-10 23 -10 23 -12.9375 21.125 C-15.83371205 16.73679993 -15.90093931 13.11897335 -15 8 C-11.52874084 1.29687886 -7.56319432 -1.20657964 0 0 Z " fill="#144A98" transform="translate(211,108)"/>
<path d="M0 0 C11.42307692 0 11.42307692 0 15 3 C16.85269921 6.70539842 16.46444489 10.95623313 16 15 C14.68882399 18.11326625 13.09390848 20.45304576 10 22 C5.33091139 22.13996069 0.67201378 22.04247285 -4 22 C-2.68 14.74 -1.36 7.48 0 0 Z M5 5 C3.70074209 9.33085971 2.656379 13.51474352 2 18 C4.33071879 18.41870553 4.33071879 18.41870553 7 18 C9.91311402 15.32308441 10.91041772 13.7614494 11.375 9.8125 C11.27208703 6.86712029 11.27208703 6.86712029 9 5 C7.68 5 6.36 5 5 5 Z " fill="#144A98" transform="translate(406,108)"/>
<path d="M0 0 C2.82070273 3.67546113 2.70041631 6.44859089 2.48828125 10.98828125 C1.77141896 15.53279356 -0.13806385 18.36791349 -3.8125 21.0625 C-7.4385966 22.128999 -10.59905245 22.13364918 -14.1875 20.9375 C-16.46572835 19.31019404 -17.08828005 18.3766965 -17.9375 15.6875 C-18.56811839 9.27621302 -17.70826326 5.9246712 -13.9375 0.6875 C-9.79677035 -2.59652696 -4.62069063 -2.0645639 0 0 Z M-10.6875 4.75 C-12.56588458 7.66149609 -12.75426549 10.26712245 -12.9375 13.6875 C-11.9475 15.1725 -11.9475 15.1725 -10.9375 16.6875 C-8.00582781 16.37056247 -6.34767339 16.05524166 -4.125 14.0625 C-2.50821426 10.82892853 -2.66859482 8.25049364 -2.9375 4.6875 C-3.98453565 3.43073161 -3.98453565 3.43073161 -6.3125 3.4375 C-8.90151667 3.49176999 -8.90151667 3.49176999 -10.6875 4.75 Z " fill="#144A98" transform="translate(190.9375,109.3125)"/>
<path d="M0 0 C2.5 1.25 2.5 1.25 4 3 C4 4.32 4 5.64 4 7 C2.68 7.33 1.36 7.66 0 8 C-0.33 7.01 -0.66 6.02 -1 5 C-2.65 5 -4.3 5 -6 5 C-4.03676947 7.18136725 -2.44286487 8.30587811 0.1875 9.75 C3 12 3 12 3.6875 15.5 C3 19 3 19 0.9375 21.4375 C-2.77350139 23.41143691 -4.85009967 23.66694827 -9 23 C-11.9375 20.6875 -11.9375 20.6875 -14 18 C-14 17.01 -14 16.02 -14 15 C-12.35 14.67 -10.7 14.34 -9 14 C-8.67 15.32 -8.34 16.64 -8 18 C-6.35 17.67 -4.7 17.34 -3 17 C-3 16.34 -3 15.68 -3 15 C-4.30543287 14.22198532 -5.64548247 13.50151673 -7 12.8125 C-9.20703125 11.49609375 -9.20703125 11.49609375 -11 10 C-11.69026551 6.36041819 -11.70273161 4.36154248 -10 1.0625 C-6.77403129 -0.65129587 -3.52195933 -0.52439636 0 0 Z " fill="#144A98" transform="translate(240,108)"/>
<path d="M0 0 C1.90625 0.46484375 1.90625 0.46484375 4.40625 2.83984375 C5.90625 5.46484375 5.90625 5.46484375 5.90625 7.46484375 C3.59375 8.15234375 3.59375 8.15234375 0.90625 8.46484375 C-0.71875 7.02734375 -0.71875 7.02734375 -2.09375 5.46484375 C-3.08375 5.46484375 -4.07375 5.46484375 -5.09375 5.46484375 C-3.13051947 7.646211 -1.53661487 8.77072186 1.09375 10.21484375 C3.90625 12.46484375 3.90625 12.46484375 4.46875 16.02734375 C3.90625 19.46484375 3.90625 19.46484375 2.53125 21.33984375 C-0.45561744 23.40767506 -2.01950693 23.54110071 -5.59375 23.15234375 C-6.78484375 23.03439453 -6.78484375 23.03439453 -8 22.9140625 C-10.09375 22.46484375 -10.09375 22.46484375 -12.09375 20.46484375 C-12.21875 17.83984375 -12.21875 17.83984375 -12.09375 15.46484375 C-10.44375 15.13484375 -8.79375 14.80484375 -7.09375 14.46484375 C-6.76375 15.45484375 -6.43375 16.44484375 -6.09375 17.46484375 C-4.77375 17.46484375 -3.45375 17.46484375 -2.09375 17.46484375 C-2.09375 16.80484375 -2.09375 16.14484375 -2.09375 15.46484375 C-3.228125 14.94921875 -4.3625 14.43359375 -5.53125 13.90234375 C-8.72644161 12.07744773 -9.01838735 11.68696525 -10.28125 7.96484375 C-10.09375 4.46484375 -10.09375 4.46484375 -8.65625 2.02734375 C-5.58784132 0.15636285 -3.55055144 -0.16560408 0 0 Z " fill="#144A98" transform="translate(306.09375,107.53515625)"/>
<path d="M0 0 C1.99274166 2.22267339 2.30806247 3.88082781 2.625 6.8125 C0.645 6.8125 -1.335 6.8125 -3.375 6.8125 C-3.705 6.1525 -4.035 5.4925 -4.375 4.8125 C-6.025 5.1425 -7.675 5.4725 -9.375 5.8125 C-11.15259876 10.78170684 -11.15259876 10.78170684 -10.375 15.8125 C-7.90233235 15.46805119 -7.90233235 15.46805119 -5.375 14.8125 C-5.045 14.1525 -4.715 13.4925 -4.375 12.8125 C-2.395 12.8125 -0.415 12.8125 1.625 12.8125 C0.2787371 17.21845131 -1.43603995 19.39541088 -5.375 21.8125 C-9.22403073 22.28380989 -12.21892486 22.17955636 -15.375 19.8125 C-18.19951061 15.37398333 -17.4646079 10.73359796 -16.375 5.8125 C-15.0903043 2.93722868 -14.12648258 1.37611193 -11.625 -0.5 C-7.52895842 -1.75156826 -3.87086346 -1.93543173 0 0 Z " fill="#144A98" transform="translate(290.375,109.1875)"/>
<path d="M0 0 C5.61 0 11.22 0 17 0 C16.67 1.65 16.34 3.3 16 5 C14.02 5 12.04 5 10 5 C9.95101563 5.64066406 9.90203125 6.28132813 9.8515625 6.94140625 C9.3959855 12.21196085 8.6402621 16.96986288 7 22 C5.35 22 3.7 22 2 22 C2.51482919 16.147205 3.45357192 10.6702363 5 5 C3.02 5 1.04 5 -1 5 C-0.67 3.35 -0.34 1.7 0 0 Z " fill="#144A98" transform="translate(248,108)"/>
<path d="M0 0 C5.61 0 11.22 0 17 0 C16.67 1.65 16.34 3.3 16 5 C14.02 5 12.04 5 10 5 C9.95101563 5.556875 9.90203125 6.11375 9.8515625 6.6875 C9.33444423 11.96567265 8.39537537 16.88362365 7 22 C5.35 22 3.7 22 2 22 C2.51482919 16.147205 3.45357192 10.6702363 5 5 C3.02 5 1.04 5 -1 5 C-0.67 3.35 -0.34 1.7 0 0 Z " fill="#144A98" transform="translate(387,108)"/>
<path d="M0 0 C5.61 0 11.22 0 17 0 C16.67 1.65 16.34 3.3 16 5 C14.02 5 12.04 5 10 5 C9.95101563 5.64066406 9.90203125 6.28132813 9.8515625 6.94140625 C9.3959855 12.21196085 8.6402621 16.96986288 7 22 C5.35 22 3.7 22 2 22 C2.31014392 19.91631462 2.6232052 17.83306332 2.9375 15.75 C3.11152344 14.58984375 3.28554688 13.4296875 3.46484375 12.234375 C3.8727736 9.76893039 4.33901303 7.40575438 5 5 C3.35 5 1.7 5 0 5 C0 3.35 0 1.7 0 0 Z " fill="#144A98" transform="translate(334,108)"/>
<path d="M0 0 C1.32 0.33 2.64 0.66 4 1 C3.67 1.99 3.34 2.98 3 4 C2.67 4 2.34 4 2 4 C2 5.98 2 7.96 2 10 C2.45375 9.505 2.9075 9.01 3.375 8.5 C5 7 5 7 7 7 C7.66 6.34 8.32 5.68 9 5 C7.91059989 16.32976116 1.81575024 27.99445048 -5 37 C-8.25 37.875 -8.25 37.875 -11 38 C-7.69625865 32.83351087 -4.363369 28.03119089 -0.1015625 23.60546875 C1.37717484 21.77479461 1.37717484 21.77479461 1 18 C0.34 18 -0.32 18 -1 18 C-1.19532961 16.2300132 -1.38098882 14.45895721 -1.5625 12.6875 C-1.66691406 11.70136719 -1.77132812 10.71523437 -1.87890625 9.69921875 C-2 7 -2 7 -1 4 C-0.65772583 2.66893378 -0.32248257 1.33599921 0 0 Z " fill="#396882" transform="translate(145,93)"/>
<path d="M0 0 C1.65 0 3.3 0 5 0 C4.01 5.61 3.02 11.22 2 17 C4.97 17.33 7.94 17.66 11 18 C11 19.32 11 20.64 11 22 C5.72 22 0.44 22 -5 22 C-4.35885208 18.51990875 -3.71232438 15.04097171 -3.0625 11.5625 C-2.88009766 10.56927734 -2.69769531 9.57605469 -2.50976562 8.55273438 C-2.33251953 7.60849609 -2.15527344 6.66425781 -1.97265625 5.69140625 C-1.81031494 4.81685791 -1.64797363 3.94230957 -1.48071289 3.04125977 C-1 1 -1 1 0 0 Z " fill="#144A98" transform="translate(373,108)"/>
<path d="M0 0 C0.66 0.33 1.32 0.66 2 1 C1.67 1.33 1.34 1.66 1 2 C1.99 2.66 2.98 3.32 4 4 C3.01 4.66 2.02 5.32 1 6 C1.99 6.66 2.98 7.32 4 8 C1.9914235 12.92101242 -0.29260594 17.42543762 -3 22 C-3.99 21.67 -4.98 21.34 -6 21 C-5.67 17.7 -5.34 14.4 -5 11 C-5.99 10.67 -6.98 10.34 -8 10 C-8 9.34 -8 8.68 -8 8 C-8.78375 8.515625 -9.5675 9.03125 -10.375 9.5625 C-11.24125 10.036875 -12.1075 10.51125 -13 11 C-13.66 10.67 -14.32 10.34 -15 10 C-14.0409375 9.5978125 -14.0409375 9.5978125 -13.0625 9.1875 C-10.66868314 8.11332248 -10.66868314 8.11332248 -10 5 C-7.78515625 3.578125 -7.78515625 3.578125 -5.0625 2.25 C-4.16660156 1.80140625 -3.27070312 1.3528125 -2.34765625 0.890625 C-1.18556641 0.44976563 -1.18556641 0.44976563 0 0 Z " fill="#4980A9" transform="translate(60,19)"/>
<path d="M0 0 C1.32 0 2.64 0 4 0 C4.25287193 6.06892629 3.69832609 11.16200408 2 17 C5.3 17 8.6 17 12 17 C11.67 18.32 11.34 19.64 11 21 C6.05 21 1.1 21 -4 21 C-2.86345347 13.93717516 -1.62539958 6.9659982 0 0 Z " fill="#1D4D95" transform="translate(158,109)"/>
<path d="M0 0 C1.32 0 2.64 0 4 0 C2.8947206 2.80570925 1.74530371 5.52976828 0.4375 8.25 C-2.47647716 15.06900239 -2.17530085 21.81760592 -1 29 C-2.32 29 -3.64 29 -5 29 C-7.75499195 22.6290811 -8.35466669 15.69134084 -5.94921875 9.13671875 C-4.25659822 5.68656895 -2.72775005 2.72775005 0 0 Z " fill="#144A98" transform="translate(329,108)"/>
<path d="M0 0 C1.9375 0.3125 1.9375 0.3125 4 1 C6.05275843 7.15827529 6.19624053 14.74158364 3.953125 20.8515625 C2.2324923 23.95882272 0.51317427 26.48682573 -2 29 C-3.32 29 -4.64 29 -6 29 C-4.93788265 26.22215463 -3.79059809 23.58957226 -2.4375 20.9375 C-0.04708793 16.0527449 0.1129875 12.20265048 0.0625 6.75 C0.05347656 5.48671875 0.04445313 4.2234375 0.03515625 2.921875 C0.02355469 1.95765625 0.01195312 0.9934375 0 0 Z " fill="#144A98" transform="translate(352,108)"/>
<path d="M0 0 C0.33 0.66 0.66 1.32 1 2 C0.67 2.33 0.34 2.66 0 3 C1.32 2.67 2.64 2.34 4 2 C4 2.66 4 3.32 4 4 C5.32 4.33 6.64 4.66 8 5 C7.34 8.63 6.68 12.26 6 16 C5.01 16.33 4.02 16.66 3 17 C2.67 17.66 2.34 18.32 2 19 C1.34 19 0.68 19 0 19 C0.0825 18.0925 0.165 17.185 0.25 16.25 C0.34799261 12.91413169 0.34799261 12.91413169 -2 11 C-4 9 -4 9 -4.5 5.9375 C-4 3 -4 3 -2 1.125 C-1.34 0.75375 -0.68 0.3825 0 0 Z " fill="#6C9B7C" transform="translate(48,25)"/>
<path d="M0 0 C1.65 0 3.3 0 5 0 C3.59836066 19.40163934 3.59836066 19.40163934 1 22 C-0.66617115 22.04063832 -2.33388095 22.042721 -4 22 C-2.92373883 14.59211729 -1.72864339 7.28499714 0 0 Z " fill="#144A98" transform="translate(267,108)"/>
<path d="M0 0 C1.65 0 3.3 0 5 0 C4.51298949 7.59064664 3.00236413 14.67059167 1 22 C-0.65 22 -2.3 22 -4 22 C-3.3622098 14.47407567 -1.80110167 7.32901118 0 0 Z " fill="#144A98" transform="translate(221,108)"/>
<path d="M0 0 C2.0625 2.3125 2.0625 2.3125 4 5 C3.67 5.99 3.34 6.98 3 8 C2.855625 8.86625 2.71125 9.7325 2.5625 10.625 C2.2840625 11.800625 2.2840625 11.800625 2 13 C1.01 13.495 1.01 13.495 0 14 C-0.69337792 17.0399648 -0.69337792 17.0399648 -1.125 20.5625 C-1.37636719 22.35880859 -1.37636719 22.35880859 -1.6328125 24.19140625 C-1.75398438 25.11824219 -1.87515625 26.04507813 -2 27 C-2.99 27 -3.98 27 -5 27 C-4.91293747 24.08190419 -4.80605266 21.16684289 -4.6875 18.25 C-4.66494141 17.425 -4.64238281 16.6 -4.61914062 15.75 C-4.41792828 11.2135762 -4.23512241 8.43731756 -1 5 C-0.28566879 2.35065178 -0.28566879 2.35065178 0 0 Z " fill="#382E26" transform="translate(59,83)"/>
<path d="M0 0 C0 3.46361612 -1.17167255 5.30954673 -2.79492188 8.29516602 C-8.40426097 18.81267681 -9.19495111 28.21764246 -9 40 C-9.495 38.515 -9.495 38.515 -10 37 C-11.485 37.495 -11.485 37.495 -13 38 C-14.02918274 25.13521581 -8.26421026 12.92379523 -2 2 C-1.34 1.34 -0.68 0.68 0 0 Z " fill="#4D6673" transform="translate(28,44)"/>
<path d="M0 0 C0.98615995 2.95847985 1.15789443 4.9210587 1 8 C0.67 8.66 0.34 9.32 0 10 C-0.66 10 -1.32 10 -2 10 C-2 8.68 -2 7.36 -2 6 C-5.25524265 9.02272532 -7.61820737 12.25718301 -10 16 C-11.125 14.3125 -11.125 14.3125 -12 12 C-11.00515916 8.02063663 -9.15717395 5.58314232 -6 3 C-5.01 3 -4.02 3 -3 3 C-1.31201173 1.56249809 -1.31201173 1.56249809 0 0 Z " fill="#447696" transform="translate(48,38)"/>
<path d="M0 0 C0.66 0.33 1.32 0.66 2 1 C1.67 1.33 1.34 1.66 1 2 C1.99 2.66 2.98 3.32 4 4 C1 6 1 6 -2 7 C-1.67 7.99 -1.34 8.98 -1 10 C-1.59167969 9.90460937 -2.18335938 9.80921875 -2.79296875 9.7109375 C-7.44380225 9.05845515 -10.72314374 8.65462721 -15 11 C-14.34 10.01 -13.68 9.02 -13 8 C-12.34 8 -11.68 8 -11 8 C-10.67 7.01 -10.34 6.02 -10 5 C-7.78515625 3.578125 -7.78515625 3.578125 -5.0625 2.25 C-4.16660156 1.80140625 -3.27070312 1.3528125 -2.34765625 0.890625 C-1.18556641 0.44976563 -1.18556641 0.44976563 0 0 Z " fill="#65968F" transform="translate(60,19)"/>
<path d="M0 0 C0.66 0.33 1.32 0.66 2 1 C1.06652642 2.75215106 0.1280468 4.50163563 -0.8125 6.25 C-1.33457031 7.22453125 -1.85664063 8.1990625 -2.39453125 9.203125 C-3.80533673 11.66087858 -5.11836164 13.88315685 -7 16 C-10.1875 16.75 -10.1875 16.75 -13 17 C-9.12281347 10.86467186 -4.91706956 5.33894831 0 0 Z " fill="#49905C" transform="translate(147,114)"/>
<path d="M0 0 C1.32 0.33 2.64 0.66 4 1 C3.34 4.63 2.68 8.26 2 12 C1.01 12.33 0.02 12.66 -1 13 C-1.33 13.66 -1.66 14.32 -2 15 C-2.66 15 -3.32 15 -4 15 C-3.51272637 12.72605639 -3.00823812 11.01387473 -1.8125 9 C-0.71815699 6.96255418 -0.71815699 6.96255418 -1.875 4.75 C-2.24625 4.1725 -2.6175 3.595 -3 3 C-1.75 1.4375 -1.75 1.4375 0 0 Z " fill="#7BB76D" transform="translate(52,29)"/>
<path d="M0 0 C0.33 0 0.66 0 1 0 C0.98259766 0.90492187 0.98259766 0.90492187 0.96484375 1.828125 C0.95582031 2.62734375 0.94679687 3.4265625 0.9375 4.25 C0.92589844 5.03890625 0.91429687 5.8278125 0.90234375 6.640625 C0.99614694 8.90691002 1.36758937 10.8288895 2 13 C0.02 13.99 -1.96 14.98 -4 16 C-4 13.36 -4 10.72 -4 8 C-3.34 8 -2.68 8 -2 8 C-1.855625 6.865625 -1.71125 5.73125 -1.5625 4.5625 C-1 1 -1 1 0 0 Z M3 1 C3.33 1 3.66 1 4 1 C4.05399736 2.45792884 4.09279177 3.91642712 4.125 5.375 C4.14820313 6.18710938 4.17140625 6.99921875 4.1953125 7.8359375 C4 10 4 10 2 12 C2.33 8.37 2.66 4.74 3 1 Z " fill="#366596" transform="translate(150,88)"/>
<path d="M0 0 C0 3.66012671 -0.69189012 4.14932109 -3.1875 6.6875 C-6.54062764 9.93158284 -6.54062764 9.93158284 -9.9375 10.4375 C-10.9584375 10.2209375 -10.9584375 10.2209375 -12 10 C-12.33 8.68 -12.66 7.36 -13 6 C-8.71 4.02 -4.42 2.04 0 0 Z " fill="#55A155" transform="translate(105,120)"/>
<path d="M0 0 C5.4191857 4.50014251 7.85055871 13.52314623 8.8125 20.3125 C8.874375 21.199375 8.93625 22.08625 9 23 C8.34 23.33 7.68 23.66 7 24 C6.67 22.35 6.34 20.7 6 19 C5.01 18.67 4.02 18.34 3 18 C3.66 17.67 4.32 17.34 5 17 C4.80664062 16.35933594 4.61328125 15.71867187 4.4140625 15.05859375 C2.9059252 10.04889015 1.42282214 5.03460143 0 0 Z " fill="#6B8E8C" transform="translate(145,50)"/>
<path d="M0 0 C0 1.98 0 3.96 0 6 C-1.98 6.99 -1.98 6.99 -4 8 C-4 8.99 -4 9.98 -4 11 C-4.66 11 -5.32 11 -6 11 C-6.08096803 9.54257537 -6.13917774 8.08387193 -6.1875 6.625 C-6.22230469 5.81289062 -6.25710937 5.00078125 -6.29296875 4.1640625 C-6.19628906 3.44992188 -6.09960938 2.73578125 -6 2 C-3 0 -3 0 0 0 Z " fill="#31567E" transform="translate(28,78)"/>
<path d="M0 0 C1.18414294 3.55242882 0.69535532 4.69830562 -0.4375 8.1875 C-0.72496094 9.08855469 -1.01242188 9.98960938 -1.30859375 10.91796875 C-1.53675781 11.60503906 -1.76492187 12.29210937 -2 13 C-3.97265625 11.65625 -3.97265625 11.65625 -6 10 C-6.4375 7.5 -6.4375 7.5 -6 5 C-4.625 3.1875 -4.625 3.1875 -3 2 C-2.34 2 -1.68 2 -1 2 C-0.67 1.34 -0.34 0.68 0 0 Z " fill="#566F7F" transform="translate(153,98)"/>
<path d="M0 0 C0.185625 0.9590625 0.185625 0.9590625 0.375 1.9375 C0.684375 2.9584375 0.684375 2.9584375 1 4 C1.66 4.33 2.32 4.66 3 5 C3 8.3 3 11.6 3 15 C1.68 15 0.36 15 -1 15 C-2.4002792 9.53891111 -1.42705634 5.30723432 0 0 Z " fill="#463828" transform="translate(80,96)"/>
<path d="M0 0 C1.9453125 0.77734375 1.9453125 0.77734375 4.125 1.9375 C5.21167969 2.50791016 5.21167969 2.50791016 6.3203125 3.08984375 C6.87460938 3.39019531 7.42890625 3.69054687 8 4 C4.64 7 4.64 7 1.875 7 C-0.79366778 5.57671052 -1.1357687 3.80875171 -2 1 C-1.34 0.67 -0.68 0.34 0 0 Z " fill="#5991B3" transform="translate(113,21)"/>
<path d="M0 0 C0 0.66 0 1.32 0 2 C-1.4096347 2.70180531 -2.82807641 3.38593958 -4.25 4.0625 C-5.03890625 4.44535156 -5.8278125 4.82820313 -6.640625 5.22265625 C-9.25993522 6.08564091 -10.44855176 5.93045933 -13 5 C-9.76220634 1.00037254 -4.97776602 -1.65925534 0 0 Z " fill="#7FB47C" transform="translate(71,21)"/>
<path d="M0 0 C0.33 0 0.66 0 1 0 C1.10957031 0.61488281 1.21914062 1.22976562 1.33203125 1.86328125 C1.49058594 2.67152344 1.64914063 3.47976562 1.8125 4.3125 C1.96332031 5.11300781 2.11414063 5.91351563 2.26953125 6.73828125 C3.08213407 9.25430815 4.10108767 10.22594766 6 12 C6 12.66 6 13.32 6 14 C4.02 14 2.04 14 0 14 C-1.33257403 4.58997722 -1.33257403 4.58997722 0 0 Z " fill="#473928" transform="translate(94,97)"/>
<path d="M0 0 C0.99 0.33 1.98 0.66 3 1 C2.58578031 5.83256305 0.53586014 7.82679218 -3 11 C-3.36923077 3.49230769 -3.36923077 3.49230769 -1.5 1 C-1.005 0.67 -0.51 0.34 0 0 Z " fill="#5A9868" transform="translate(113,113)"/>
<path d="M0 0 C2.0625 2.3125 2.0625 2.3125 4 5 C3.67 5.99 3.34 6.98 3 8 C2.65179959 9.66362417 2.31595508 11.32995171 2 13 C1.01 12.67 0.02 12.34 -1 12 C-1.08159574 7.83861737 -0.98248524 4.0527516 0 0 Z " fill="#8C6829" transform="translate(59,83)"/>
<path d="M0 0 C0.66 0.33 1.32 0.66 2 1 C-0.46293907 5.31014337 -4.41252807 7.41240356 -9 9 C-9.66 8.67 -10.32 8.34 -11 8 C-10.360625 7.731875 -9.72125 7.46375 -9.0625 7.1875 C-6.66868314 6.11332248 -6.66868314 6.11332248 -6 3 C-3.0625 1.25 -3.0625 1.25 0 0 Z " fill="#4579A2" transform="translate(56,21)"/>
<path d="M0 0 C1.32 0.33 2.64 0.66 4 1 C3.67 1.99 3.34 2.98 3 4 C2.67 4 2.34 4 2 4 C1.34 7.96 0.68 11.92 0 16 C-0.33 16 -0.66 16 -1 16 C-1.19573608 14.56359829 -1.38127816 13.12580496 -1.5625 11.6875 C-1.66691406 10.88699219 -1.77132812 10.08648437 -1.87890625 9.26171875 C-2 7 -2 7 -1 4 C-0.65772583 2.66893378 -0.32248257 1.33599921 0 0 Z " fill="#54996B" transform="translate(145,93)"/>
<path d="M0 0 C0.66 0 1.32 0 2 0 C2 0.66 2 1.32 2 2 C2.66 2 3.32 2 4 2 C4 2.66 4 3.32 4 4 C4.66 4.33 5.32 4.66 6 5 C5.34 6.32 4.68 7.64 4 9 C3.38125 8.21625 2.7625 7.4325 2.125 6.625 C0.10141339 4.03162353 0.10141339 4.03162353 -2 2 C-1.34 1.34 -0.68 0.68 0 0 Z " fill="#6EA575" transform="translate(46,31)"/>
<path d="M0 0 C1.88391785 3.26545761 2.49287967 6.28111761 3 10 C1.68 9.34 0.36 8.68 -1 8 C-1.125 2.25 -1.125 2.25 0 0 Z " fill="#4F3E29" transform="translate(64,102)"/>
<path d="M0 0 C0.33 0 0.66 0 1 0 C1.14285714 8.57142857 1.14285714 8.57142857 0 12 C-0.99 12 -1.98 12 -3 12 C-3 10.35 -3 8.7 -3 7 C-2.34 6.67 -1.68 6.34 -1 6 C-0.34227572 2.97065509 -0.34227572 2.97065509 0 0 Z " fill="#453828" transform="translate(57,98)"/>
<path d="M0 0 C2.12046792 3.53411321 2.53199289 6.94393835 3 11 C2.01 11.495 2.01 11.495 1 12 C0.67 10.35 0.34 8.7 0 7 C-0.99 6.67 -1.98 6.34 -3 6 C-2.34 5.34 -1.68 4.68 -1 4 C-0.3574765 1.93125966 -0.3574765 1.93125966 0 0 Z " fill="#71937F" transform="translate(151,62)"/>
<path d="M0 0 C2.93200474 2.85276137 5.64315404 5.65079784 8 9 C7.67 9.66 7.34 10.32 7 11 C6.01216806 9.92456217 5.03506057 8.83926783 4.0625 7.75 C3.51722656 7.14671875 2.97195312 6.5434375 2.41015625 5.921875 C0.93787201 3.91532695 0.42470811 2.42997551 0 0 Z " fill="#659098" transform="translate(137,39)"/>
<path d="M0 0 C0.33 0 0.66 0 1 0 C1.05422947 1.4370809 1.09289723 2.87475462 1.125 4.3125 C1.14820313 5.11300781 1.17140625 5.91351563 1.1953125 6.73828125 C1 9 1 9 -1 12 C-2.37520651 8.17998192 -1.74051523 4.92473073 -1 1 C-0.67 0.67 -0.34 0.34 0 0 Z " fill="#417684" transform="translate(152,88)"/>
<path d="M0 0 C1.65 0 3.3 0 5 0 C5 1.32 5 2.64 5 4 C3.68 4.33 2.36 4.66 1 5 C0.67 3.35 0.34 1.7 0 0 Z " fill="#8AB382" transform="translate(69,42)"/>
<path d="M0 0 C0.33 0 0.66 0 1 0 C0.67 2.97 0.34 5.94 0 9 C-0.66 8.67 -1.32 8.34 -2 8 C-2.20086443 4.28400809 -2.1519437 3.22791555 0 0 Z " fill="#519C64" transform="translate(149,100)"/>
</svg>
